ffmpeg started on 2025-06-04 at 20:48:31
Report written to "D:\Convert\FFMetrics\reports\psnr_report-6.txt"
Log level: 32
Command line:
ffmpeg -hide_banner -nostdin -i "G:\\\xc0\xed\xe8\xec\xe5\\\xce\xed\xe3\xee\xe8\xed\xe3\xe8\\!_36_\xce\xf1\xe5\xed\xfc_2024\\DreamCast\\\xc4\xe5\xf2\xf1\xea\xe0\xff \xc4\xe5\xeb\xe8\xea\xee\\[DC] Delicos Nursery - 08_Telegram_HEVC.mkv" -i "G:\\\xc0\xed\xe8\xec\xe5\\\xce\xed\xe3\xee\xe8\xed\xe3\xe8\\!_36_\xce\xf1\xe5\xed\xfc_2024\\DreamCast\\\xc4\xe5\xf2\xf1\xea\xe0\xff \xc4\xe5\xeb\xe8\xea\xee\\[DC] Delicos Nursery - 08_Telegram.mp4" -lavfi "[0:v]settb=AVTB,setpts=PTS-STARTPTS,format=pix_fmts=yuv420p10,fps=24000/1001,scale=1920:1080:flags=bicubic[main];[1:v]settb=AVTB,setpts=PTS-STARTPTS,format=pix_fmts=yuv420p,fps=24000/1001,scale=1920:1080:flags=bicubic[ref];[main][ref]psnr=eof_action=endall:stats_file='D\\:/Convert/FFMetrics/logs/psnr_logfile-6.txt'" -f null -
Input #0, matroska,webm, from 'G:\Аниме\Онгоинги\!_36_Осень_2024\DreamCast\Детская Делико\[DC] Delicos Nursery - 08_Telegram_HEVC.mkv':
  Metadata:
    COMPATIBLE_BRANDS: isomiso2avc1mp41
    MAJOR_BRAND     : isom
    MINOR_VERSION   : 512
    ENCODER         : Lavf61.7.100
  Duration: 00:23:46.69, start: -0.021000, bitrate: 1482 kb/s
  Stream #0:0: Video: hevc (Main 10), yuv420p10le(tv, bt709, progressive), 1920x1080 [SAR 1:1 DAR 16:9], 23.98 fps, 23.98 tbr, 1k tbn (default)
      Metadata:
        HANDLER_NAME    : VideoHandler
        VENDOR_ID       : [0][0][0][0]
        ENCODER         : Lavc61.19.100 libx265
        BPS             : 1285381
        DURATION        : 00:23:46.591708333
        NUMBER_OF_FRAMES: 34204
        NUMBER_OF_BYTES : 229214247
        _STATISTICS_WRITING_APP: mkvpropedit v66.0.0 ('Josie') 64-bit
        _STATISTICS_WRITING_DATE_UTC: 2025-05-30 13:07:03
        _STATISTICS_TAGS: BPS DURATION NUMBER_OF_FRAMES NUMBER_OF_BYTES
  Stream #0:1: Audio: aac (LC), 48000 Hz, stereo, fltp (default)
      Metadata:
        HANDLER_NAME    : SoundHandler
        VENDOR_ID       : [0][0][0][0]
        ENCODER         : Lavc61.19.100 aac
        BPS             : 193080
        DURATION        : 00:23:46.688000000
        NUMBER_OF_FRAMES: 66877
        NUMBER_OF_BYTES : 34433186
        _STATISTICS_WRITING_APP: mkvpropedit v66.0.0 ('Josie') 64-bit
        _STATISTICS_WRITING_DATE_UTC: 2025-05-30 13:07:03
        _STATISTICS_TAGS: BPS DURATION NUMBER_OF_FRAMES NUMBER_OF_BYTES
Input #1, mov,mp4,m4a,3gp,3g2,mj2, from 'G:\Аниме\Онгоинги\!_36_Осень_2024\DreamCast\Детская Делико\[DC] Delicos Nursery - 08_Telegram.mp4':
  Metadata:
    major_brand     : isom
    minor_version   : 512
    compatible_brands: isomiso2avc1mp41
    encoder         : Lavf61.1.100
  Duration: 00:23:46.66, start: 0.000000, bitrate: 3692 kb/s
  Stream #1:0[0x1](und): Video: h264 (High) (avc1 / 0x31637661), yuv420p(tv, bt709, progressive), 1920x1080 [SAR 1:1 DAR 16:9], 3544 kb/s, 23.98 fps, 23.98 tbr, 24k tbn (default)
      Metadata:
        handler_name    : VideoHandler
        vendor_id       : [0][0][0][0]
        encoder         : Lavc61.3.100 h264_qsv
  Stream #1:1[0x2](und): Audio: aac (HE-AACv2) (mp4a / 0x6134706D), 48000 Hz, stereo, fltp, 144 kb/s (default)
      Metadata:
        handler_name    : SoundHandler
        vendor_id       : [0][0][0][0]
Stream mapping:
  Stream #0:0 (hevc) -> settb:default
  Stream #1:0 (h264) -> settb:default
  psnr:default -> Stream #0:0 (wrapped_avframe)
  Stream #0:1 -> #0:1 (aac (native) -> pcm_s16le (native))
Output #0, null, to 'pipe:':
  Metadata:
    COMPATIBLE_BRANDS: isomiso2avc1mp41
    MAJOR_BRAND     : isom
    MINOR_VERSION   : 512
    encoder         : Lavf61.7.100
  Stream #0:0: Video: wrapped_avframe, yuv420p10le(tv, bt709, progressive), 1920x1080 [SAR 1:1 DAR 16:9], q=2-31, 200 kb/s, 23.98 fps, 23.98 tbn
      Metadata:
        encoder         : Lavc61.19.100 wrapped_avframe
  Stream #0:1: Audio: pcm_s16le, 48000 Hz, stereo, s16, 1536 kb/s (default)
      Metadata:
        HANDLER_NAME    : SoundHandler
        VENDOR_ID       : [0][0][0][0]
        _STATISTICS_TAGS: BPS DURATION NUMBER_OF_FRAMES NUMBER_OF_BYTES
        BPS             : 193080
        DURATION        : 00:23:46.688000000
        NUMBER_OF_FRAMES: 66877
        NUMBER_OF_BYTES : 34433186
        _STATISTICS_WRITING_APP: mkvpropedit v66.0.0 ('Josie') 64-bit
        _STATISTICS_WRITING_DATE_UTC: 2025-05-30 13:07:03
        encoder         : Lavc61.19.100 pcm_s16le
frame=  162 fps=0.0 q=-0.0 size=N/A time=00:00:06.75 bitrate=N/A speed=13.2x    frame=  393 fps=381 q=-0.0 size=N/A time=00:00:16.39 bitrate=N/A speed=15.9x    frame=  608 fps=396 q=-0.0 size=N/A time=00:00:25.35 bitrate=N/A speed=16.5x    frame=  844 fps=411 q=-0.0 size=N/A time=00:00:35.20 bitrate=N/A speed=17.1x    frame= 1060 fps=411 q=-0.0 size=N/A time=00:00:44.21 bitrate=N/A speed=17.1x    frame= 1306 fps=423 q=-0.0 size=N/A time=00:00:54.47 bitrate=N/A speed=17.7x    frame= 1571 fps=435 q=-0.0 size=N/A time=00:01:05.52 bitrate=N/A speed=18.2x    frame= 1826 fps=443 q=-0.0 size=N/A time=00:01:16.15 bitrate=N/A speed=18.5x    frame= 1983 fps=428 q=-0.0 size=N/A time=00:01:22.70 bitrate=N/A speed=17.9x    frame= 2193 fps=425 q=-0.0 size=N/A time=00:01:31.46 bitrate=N/A speed=17.7x    frame= 2384 fps=421 q=-0.0 size=N/A time=00:01:39.43 bitrate=N/A speed=17.6x    frame= 2606 fps=422 q=-0.0 size=N/A time=00:01:48.69 bitrate=N/A speed=17.6x    frame= 2782 fps=415 q=-0.0 size=N/A time=00:01:56.03 bitrate=N/A speed=17.3x    frame= 2967 fps=412 q=-0.0 size=N/A time=00:02:03.74 bitrate=N/A speed=17.2x    frame= 3147 fps=407 q=-0.0 size=N/A time=00:02:11.25 bitrate=N/A speed=  17x    frame= 3351 fps=407 q=-0.0 size=N/A time=00:02:19.76 bitrate=N/A speed=  17x    frame= 3536 fps=404 q=-0.0 size=N/A time=00:02:27.48 bitrate=N/A speed=16.8x    frame= 3752 fps=404 q=-0.0 size=N/A time=00:02:36.48 bitrate=N/A speed=16.9x    frame= 3956 fps=404 q=-0.0 size=N/A time=00:02:44.99 bitrate=N/A speed=16.9x    frame= 4198 fps=407 q=-0.0 size=N/A time=00:02:55.09 bitrate=N/A speed=  17x    frame= 4456 fps=412 q=-0.0 size=N/A time=00:03:05.85 bitrate=N/A speed=17.2x    frame= 4690 fps=414 q=-0.0 size=N/A time=00:03:15.61 bitrate=N/A speed=17.3x    frame= 4960 fps=418 q=-0.0 size=N/A time=00:03:26.87 bitrate=N/A speed=17.4x    frame= 5224 fps=422 q=-0.0 size=N/A time=00:03:37.88 bitrate=N/A speed=17.6x    frame= 5482 fps=425 q=-0.0 size=N/A time=00:03:48.64 bitrate=N/A speed=17.7x    frame= 5748 fps=428 q=-0.0 size=N/A time=00:03:59.73 bitrate=N/A speed=17.9x    frame= 6018 fps=432 q=-0.0 size=N/A time=00:04:11.00 bitrate=N/A speed=  18x    frame= 6278 fps=435 q=-0.0 size=N/A time=00:04:21.84 bitrate=N/A speed=18.1x    frame= 6521 fps=436 q=-0.0 size=N/A time=00:04:32.02 bitrate=N/A speed=18.2x    frame= 6775 fps=438 q=-0.0 size=N/A time=00:04:42.57 bitrate=N/A speed=18.3x    frame= 7052 fps=441 q=-0.0 size=N/A time=00:04:54.12 bitrate=N/A speed=18.4x    frame= 7314 fps=443 q=-0.0 size=N/A time=00:05:05.05 bitrate=N/A speed=18.5x    frame= 7545 fps=443 q=-0.0 size=N/A time=00:05:14.73 bitrate=N/A speed=18.5x    frame= 7793 fps=444 q=-0.0 size=N/A time=00:05:25.03 bitrate=N/A speed=18.5x    frame= 8060 fps=446 q=-0.0 size=N/A time=00:05:36.16 bitrate=N/A speed=18.6x    frame= 8313 fps=447 q=-0.0 size=N/A time=00:05:46.72 bitrate=N/A speed=18.7x    frame= 8551 fps=448 q=-0.0 size=N/A time=00:05:56.64 bitrate=N/A speed=18.7x    frame= 8800 fps=449 q=-0.0 size=N/A time=00:06:07.03 bitrate=N/A speed=18.7x    frame= 9018 fps=448 q=-0.0 size=N/A time=00:06:16.12 bitrate=N/A speed=18.7x    frame= 9266 fps=449 q=-0.0 size=N/A time=00:06:26.46 bitrate=N/A speed=18.7x    frame= 9530 fps=450 q=-0.0 size=N/A time=00:06:37.48 bitrate=N/A speed=18.8x    frame= 9793 fps=452 q=-0.0 size=N/A time=00:06:48.44 bitrate=N/A speed=18.8x    frame=10046 fps=453 q=-0.0 size=N/A time=00:06:59.00 bitrate=N/A speed=18.9x    frame=10310 fps=454 q=-0.0 size=N/A time=00:07:10.01 bitrate=N/A speed=18.9x    frame=10519 fps=453 q=-0.0 size=N/A time=00:07:18.72 bitrate=N/A speed=18.9x    frame=10748 fps=453 q=-0.0 size=N/A time=00:07:28.28 bitrate=N/A speed=18.9x    frame=10968 fps=452 q=-0.0 size=N/A time=00:07:37.45 bitrate=N/A speed=18.9x    frame=11195 fps=452 q=-0.0 size=N/A time=00:07:46.92 bitrate=N/A speed=18.9x    frame=11419 fps=451 q=-0.0 size=N/A time=00:07:56.26 bitrate=N/A speed=18.8x    frame=11645 fps=451 q=-0.0 size=N/A time=00:08:05.69 bitrate=N/A speed=18.8x    frame=11909 fps=452 q=-0.0 size=N/A time=00:08:16.70 bitrate=N/A speed=18.9x    frame=12172 fps=454 q=-0.0 size=N/A time=00:08:27.67 bitrate=N/A speed=18.9x    frame=12432 fps=454 q=-0.0 size=N/A time=00:08:38.51 bitrate=N/A speed=  19x    frame=12692 fps=455 q=-0.0 size=N/A time=00:08:49.36 bitrate=N/A speed=  19x    frame=12957 fps=456 q=-0.0 size=N/A time=00:09:00.41 bitrate=N/A speed=  19x    frame=13201 fps=457 q=-0.0 size=N/A time=00:09:10.59 bitrate=N/A speed=19.1x    frame=13410 fps=456 q=-0.0 size=N/A time=00:09:19.30 bitrate=N/A speed=  19x    frame=13654 fps=456 q=-0.0 size=N/A time=00:09:29.48 bitrate=N/A speed=  19x    frame=13877 fps=456 q=-0.0 size=N/A time=00:09:38.78 bitrate=N/A speed=  19x    frame=14049 fps=454 q=-0.0 size=N/A time=00:09:45.96 bitrate=N/A speed=18.9x    frame=14227 fps=452 q=-0.0 size=N/A time=00:09:53.38 bitrate=N/A speed=18.9x    frame=14404 fps=450 q=-0.0 size=N/A time=00:10:00.76 bitrate=N/A speed=18.8x    frame=14602 fps=449 q=-0.0 size=N/A time=00:10:09.02 bitrate=N/A speed=18.7x    frame=14821 fps=449 q=-0.0 size=N/A time=00:10:18.15 bitrate=N/A speed=18.7x    frame=15016 fps=448 q=-0.0 size=N/A time=00:10:26.29 bitrate=N/A speed=18.7x    frame=15193 fps=446 q=-0.0 size=N/A time=00:10:33.67 bitrate=N/A speed=18.6x    frame=15415 fps=446 q=-0.0 size=N/A time=00:10:42.93 bitrate=N/A speed=18.6x    frame=15656 fps=446 q=-0.0 size=N/A time=00:10:52.98 bitrate=N/A speed=18.6x    frame=15923 fps=447 q=-0.0 size=N/A time=00:11:04.12 bitrate=N/A speed=18.7x    frame=16181 fps=448 q=-0.0 size=N/A time=00:11:14.88 bitrate=N/A speed=18.7x    frame=16431 fps=449 q=-0.0 size=N/A time=00:11:25.30 bitrate=N/A speed=18.7x    frame=16683 fps=449 q=-0.0 size=N/A time=00:11:35.82 bitrate=N/A speed=18.7x    frame=16948 fps=450 q=-0.0 size=N/A time=00:11:46.87 bitrate=N/A speed=18.8x    frame=17183 fps=450 q=-0.0 size=N/A time=00:11:56.67 bitrate=N/A speed=18.8x    frame=17420 fps=450 q=-0.0 size=N/A time=00:12:06.55 bitrate=N/A speed=18.8x    frame=17662 fps=450 q=-0.0 size=N/A time=00:12:16.65 bitrate=N/A speed=18.8x    frame=17861 fps=450 q=-0.0 size=N/A time=00:12:24.95 bitrate=N/A speed=18.8x    frame=18038 fps=448 q=-0.0 size=N/A time=00:12:32.33 bitrate=N/A speed=18.7x    frame=18281 fps=449 q=-0.0 size=N/A time=00:12:42.47 bitrate=N/A speed=18.7x    frame=18499 fps=448 q=-0.0 size=N/A time=00:12:51.56 bitrate=N/A speed=18.7x    frame=18686 fps=447 q=-0.0 size=N/A time=00:12:59.36 bitrate=N/A speed=18.6x    frame=18941 fps=448 q=-0.0 size=N/A time=00:13:09.99 bitrate=N/A speed=18.7x    frame=19161 fps=447 q=-0.0 size=N/A time=00:13:19.17 bitrate=N/A speed=18.7x    frame=19403 fps=448 q=-0.0 size=N/A time=00:13:29.26 bitrate=N/A speed=18.7x    frame=19596 fps=447 q=-0.0 size=N/A time=00:13:37.31 bitrate=N/A speed=18.6x    frame=19827 fps=447 q=-0.0 size=N/A time=00:13:46.95 bitrate=N/A speed=18.6x    frame=20027 fps=446 q=-0.0 size=N/A time=00:13:55.29 bitrate=N/A speed=18.6x    frame=20288 fps=447 q=-0.0 size=N/A time=00:14:06.17 bitrate=N/A speed=18.6x    frame=20547 fps=448 q=-0.0 size=N/A time=00:14:16.98 bitrate=N/A speed=18.7x    frame=20750 fps=447 q=-0.0 size=N/A time=00:14:25.44 bitrate=N/A speed=18.6x    frame=20941 fps=446 q=-0.0 size=N/A time=00:14:33.41 bitrate=N/A speed=18.6x    frame=21125 fps=445 q=-0.0 size=N/A time=00:14:41.08 bitrate=N/A speed=18.6x    frame=21314 fps=444 q=-0.0 size=N/A time=00:14:48.97 bitrate=N/A speed=18.5x    frame=21466 fps=443 q=-0.0 size=N/A time=00:14:55.31 bitrate=N/A speed=18.5x    frame=21621 fps=441 q=-0.0 size=N/A time=00:15:01.77 bitrate=N/A speed=18.4x    frame=21832 fps=441 q=-0.0 size=N/A time=00:15:10.57 bitrate=N/A speed=18.4x    frame=22041 fps=440 q=-0.0 size=N/A time=00:15:19.29 bitrate=N/A speed=18.4x    frame=22274 fps=441 q=-0.0 size=N/A time=00:15:29.01 bitrate=N/A speed=18.4x    frame=22528 fps=441 q=-0.0 size=N/A time=00:15:39.60 bitrate=N/A speed=18.4x    frame=22760 fps=441 q=-0.0 size=N/A time=00:15:49.28 bitrate=N/A speed=18.4x    frame=23001 fps=441 q=-0.0 size=N/A time=00:15:59.33 bitrate=N/A speed=18.4x    frame=23184 fps=441 q=-0.0 size=N/A time=00:16:06.96 bitrate=N/A speed=18.4x    frame=23404 fps=440 q=-0.0 size=N/A time=00:16:16.14 bitrate=N/A speed=18.4x    frame=23585 fps=440 q=-0.0 size=N/A time=00:16:23.69 bitrate=N/A speed=18.3x    frame=23773 fps=439 q=-0.0 size=N/A time=00:16:31.53 bitrate=N/A speed=18.3x    frame=23988 fps=439 q=-0.0 size=N/A time=00:16:40.49 bitrate=N/A speed=18.3x    frame=24212 fps=439 q=-0.0 size=N/A time=00:16:49.84 bitrate=N/A speed=18.3x    frame=24418 fps=438 q=-0.0 size=N/A time=00:16:58.43 bitrate=N/A speed=18.3x    frame=24609 fps=438 q=-0.0 size=N/A time=00:17:06.40 bitrate=N/A speed=18.3x    frame=24858 fps=438 q=-0.0 size=N/A time=00:17:16.78 bitrate=N/A speed=18.3x    frame=25081 fps=438 q=-0.0 size=N/A time=00:17:26.08 bitrate=N/A speed=18.3x    frame=25334 fps=439 q=-0.0 size=N/A time=00:17:36.63 bitrate=N/A speed=18.3x    frame=25601 fps=439 q=-0.0 size=N/A time=00:17:47.77 bitrate=N/A speed=18.3x    frame=25860 fps=440 q=-0.0 size=N/A time=00:17:58.57 bitrate=N/A speed=18.3x    frame=26107 fps=440 q=-0.0 size=N/A time=00:18:08.87 bitrate=N/A speed=18.4x    frame=26359 fps=441 q=-0.0 size=N/A time=00:18:19.38 bitrate=N/A speed=18.4x    frame=26608 fps=441 q=-0.0 size=N/A time=00:18:29.77 bitrate=N/A speed=18.4x    frame=26823 fps=441 q=-0.0 size=N/A time=00:18:38.74 bitrate=N/A speed=18.4x    frame=27091 fps=441 q=-0.0 size=N/A time=00:18:49.92 bitrate=N/A speed=18.4x    frame=27357 fps=442 q=-0.0 size=N/A time=00:19:01.01 bitrate=N/A speed=18.4x    frame=27615 fps=442 q=-0.0 size=N/A time=00:19:11.77 bitrate=N/A speed=18.5x    frame=27851 fps=443 q=-0.0 size=N/A time=00:19:21.61 bitrate=N/A speed=18.5x    frame=28076 fps=443 q=-0.0 size=N/A time=00:19:31.00 bitrate=N/A speed=18.5x    frame=28316 fps=443 q=-0.0 size=N/A time=00:19:41.01 bitrate=N/A speed=18.5x    frame=28548 fps=443 q=-0.0 size=N/A time=00:19:50.68 bitrate=N/A speed=18.5x    frame=28784 fps=443 q=-0.0 size=N/A time=00:20:00.53 bitrate=N/A speed=18.5x    frame=29013 fps=443 q=-0.0 size=N/A time=00:20:10.08 bitrate=N/A speed=18.5x    frame=29268 fps=443 q=-0.0 size=N/A time=00:20:20.71 bitrate=N/A speed=18.5x    frame=29523 fps=444 q=-0.0 size=N/A time=00:20:31.35 bitrate=N/A speed=18.5x    frame=29751 fps=444 q=-0.0 size=N/A time=00:20:40.86 bitrate=N/A speed=18.5x    frame=30005 fps=444 q=-0.0 size=N/A time=00:20:51.45 bitrate=N/A speed=18.5x    frame=30234 fps=444 q=-0.0 size=N/A time=00:21:01.00 bitrate=N/A speed=18.5x    frame=30435 fps=444 q=-0.0 size=N/A time=00:21:09.39 bitrate=N/A speed=18.5x    frame=30585 fps=442 q=-0.0 size=N/A time=00:21:15.64 bitrate=N/A speed=18.5x    frame=30771 fps=442 q=-0.0 size=N/A time=00:21:23.40 bitrate=N/A speed=18.4x    frame=30956 fps=441 q=-0.0 size=N/A time=00:21:31.12 bitrate=N/A speed=18.4x    frame=31180 fps=441 q=-0.0 size=N/A time=00:21:40.46 bitrate=N/A speed=18.4x    frame=31420 fps=441 q=-0.0 size=N/A time=00:21:50.47 bitrate=N/A speed=18.4x    frame=31675 fps=442 q=-0.0 size=N/A time=00:22:01.11 bitrate=N/A speed=18.4x    frame=31868 fps=441 q=-0.0 size=N/A time=00:22:09.16 bitrate=N/A speed=18.4x    frame=32028 fps=440 q=-0.0 size=N/A time=00:22:15.83 bitrate=N/A speed=18.4x    frame=32184 fps=439 q=-0.0 size=N/A time=00:22:22.34 bitrate=N/A speed=18.3x    frame=32322 fps=438 q=-0.0 size=N/A time=00:22:28.09 bitrate=N/A speed=18.3x    frame=32479 fps=437 q=-0.0 size=N/A time=00:22:34.64 bitrate=N/A speed=18.2x    frame=32630 fps=436 q=-0.0 size=N/A time=00:22:40.94 bitrate=N/A speed=18.2x    frame=32791 fps=435 q=-0.0 size=N/A time=00:22:47.65 bitrate=N/A speed=18.2x    frame=32984 fps=435 q=-0.0 size=N/A time=00:22:55.70 bitrate=N/A speed=18.1x    frame=33164 fps=434 q=-0.0 size=N/A time=00:23:03.21 bitrate=N/A speed=18.1x    frame=33337 fps=434 q=-0.0 size=N/A time=00:23:10.43 bitrate=N/A speed=18.1x    frame=33497 fps=433 q=-0.0 size=N/A time=00:23:17.10 bitrate=N/A speed=18.1x    frame=33682 fps=432 q=-0.0 size=N/A time=00:23:24.82 bitrate=N/A speed=  18x    frame=33870 fps=432 q=-0.0 size=N/A time=00:23:32.66 bitrate=N/A speed=  18x    frame=34070 fps=432 q=-0.0 size=N/A time=00:23:41.00 bitrate=N/A speed=  18x    [Parsed_psnr_10 @ 0000018916462c80] PSNR y:46.022639 u:49.854483 v:49.846510 average:46.966111 min:33.925000 max:inf
[out#0/null @ 0000018916470180] video:14697KiB audio:267508KiB subtitle:0KiB other streams:0KiB global headers:0KiB muxing overhead: unknown
frame=34204 fps=432 q=-0.0 Lsize=N/A time=00:23:46.59 bitrate=N/A speed=  18x    
